<?xml version="1.0" encoding="utf-8" ?>
<svg xmlns="http://www.w3.org/2000/svg" xmlns:xlink="http://www.w3.org/1999/xlink" width="1024" height="1024">
	<path fill="#383636" d="M0 0L1024 0L1024 1024L0 1024L0 0Z"/>
	<path fill="#EB0D0D" d="M542.707 148.074L743.191 148.18L792.799 148.092C801.115 148.088 811.006 147.106 819.132 148.848L819.065 149.301C820.523 156.18 819.439 165.091 819.327 172.144L818.702 214.29L818.457 359.363L818.318 703.665L818.335 810.353L818.316 842.435C818.312 847.713 818.751 853.444 818.069 858.669C818.124 860.247 818.423 861.856 817.49 863.221C809.501 864.578 794.953 863.539 786.541 863.504C771.814 863.444 756.505 864.279 741.886 863.084C735.013 863.484 727.966 863.052 721.077 862.984C713.563 862.91 706.052 863.147 698.539 863.057C690.134 863.848 681.417 863.471 672.973 863.489C665.397 863.505 657.64 863.859 650.09 863.497C648.168 863.6 646.205 863.623 644.293 863.826Q643.701 863.726 643.113 863.6C640.865 863.101 639.985 861.745 638.664 860.009C634.48 854.517 630.93 848.405 627.036 842.692C620.971 833.798 614.604 825.065 608.396 816.264Q561.86 750.706 516.844 684.095L436.07 566.499C426.016 551.742 415.137 537.444 405.603 522.358C399.718 509.509 386.529 493.192 378.215 481.16C370.406 469.859 363.195 457.617 354.509 446.987C354.989 476 354.466 505.005 354.406 534.019L354.621 634.975L354.436 679.041C354.421 686.312 353.287 697.546 355.279 704.41C357.445 711.875 362.723 719.288 366.752 725.911C373.976 737.787 381.833 749.68 388.44 761.891C391.889 766.029 402.319 780.325 403.539 785C405.015 790.652 403.938 815.672 403.935 823.143C403.93 835.084 404.778 851.139 403.79 862.664C403.775 862.838 403.752 863.011 403.732 863.184C400.836 864.633 375.753 863.79 371.132 863.462C346.733 864.325 322.057 863.529 297.625 863.53L148.014 863.526L146.57 863.173C145.804 862.907 145.09 862.554 144.356 862.212C142.99 858.046 144.026 838.749 144.053 832.671C144.092 824.025 142.883 798.559 144.48 792.135C146.361 784.564 151.157 776.896 154.706 769.936L176.585 726.033C179.585 720.065 183.71 714.069 185.998 707.858C186.913 705.374 187.2 702.612 187.284 699.974C187.763 684.987 187.128 669.885 187.243 654.88Q187.921 588.173 187.558 521.463L187.528 247.612C187.528 238.107 186.605 152.132 187.922 148.645L189.481 148.508C214.41 148.096 239.381 148.362 264.314 148.346L370.028 148.479C373.409 151.11 382.568 168.193 387.124 173.522C392.93 184.972 400.647 195.744 407.551 206.564C416.216 220.144 424.654 233.865 433.496 247.332C439.218 256.047 445.304 264.515 451.039 273.219L513.246 367.27Q536.977 403.995 561.426 440.244L613.032 516.526C624.55 533.394 636.978 550.153 647.527 567.644C647.574 567.767 647.611 567.893 647.667 568.012C648.26 569.265 649.383 570.694 650.718 571.137C652.654 568.826 651.58 538.295 651.462 532.853C650.812 474.395 651.718 415.889 651.354 357.42C651.305 349.608 652.046 318.67 650.643 314.119C648.756 307.996 628.667 279.53 623.808 272.132L562.51 178.217C556.004 168.116 548.972 158.32 542.707 148.074Z"/>
	<path fill="#6D6D6C" d="M815.914 152.533C816.455 172.374 816.042 192.33 816.061 212.181L816.032 331.742L815.946 678.723L815.76 802.242L815.746 835.004C815.747 839.756 815.181 845.534 815.95 850.199Q815.774 855.608 815.826 861.02Q804.029 860.83 792.231 860.906C779.712 859.619 766.286 860.485 753.639 860.39Q715.71 859.763 677.783 860.524C668.359 860.512 658.839 860.309 649.433 860.909C648.286 860.985 646.723 861.226 645.615 860.908C643.833 860.397 641.918 857.925 640.872 856.468C637.132 851.259 633.957 845.541 630.26 840.253Q606.41 806.763 583.216 772.816L460.231 593.518L392.322 494.141C378.701 474.304 364.627 454.784 351.747 434.442C351.504 440.626 351.823 446.892 351.855 453.084Q351.921 469.15 351.784 485.215L351.541 625.097L351.523 678.15C351.504 685.259 350.525 698.506 351.971 704.696C353.256 710.191 379.571 753.093 384.662 760.006C389.011 767.731 397.483 776.988 400.189 784.993C401.836 789.866 400.951 796.762 400.943 801.903L401.065 841.695C401.089 847.937 400.35 855.391 401.482 861.504C398.49 861.334 395.547 861.338 392.552 861.407C381.903 860.122 367.026 861.022 356.035 861.003L280.843 860.92L189.434 860.622C176.413 860.648 162.861 859.806 149.909 860.876C148.4 855.421 149.557 838.175 149.539 831.542C149.514 822.645 148.123 799.747 149.853 792.116C151.302 785.72 155.983 779.02 158.987 773.164L181.258 728.859C184.4 722.697 188.322 716.692 191.112 710.384C191.785 708.862 192.206 707.421 192.316 705.757C192.865 697.447 192.513 688.944 192.493 680.611L192.354 637.361L192.427 516.882L192.436 290.005C192.441 250.965 192.795 211.899 192.387 172.862C192.764 166.385 192.456 159.72 192.457 153.222C195.968 153.225 199.468 153.213 202.977 153.071C216.54 154.034 230.56 153.173 244.18 153.252Q285.128 153.467 326.075 153.203C339.619 153.153 353.216 152.837 366.756 153.085C375.587 165.575 383.849 178.485 392.293 191.238L421.366 234.706L493.277 342.299Q568.882 455.769 646.067 568.173C649.153 573.266 652.882 578.13 656.299 583.018Q655.757 516.413 656.296 449.807L656.347 311.311C651.907 304.141 646.663 297.359 642.045 290.278Q617.232 251.902 591.78 213.947Q579.614 195.552 567.666 177.015C562.413 168.826 557.427 160.342 551.596 152.55C568.367 153.363 585.305 152.948 602.102 152.961L692.848 152.862L770.915 152.866C785.866 152.87 800.991 153.382 815.914 152.533Z"/>
	<path fill="#EB0D0D" d="M604.743 179.455L723.309 179.48C745.142 179.529 767.235 178.92 789.027 179.865L789.355 559.915L789.401 718.602C789.339 757.542 788.643 796.623 789.938 835.538L658.843 835.672L653.147 826.573Q645.867 815.495 638.736 804.32L410.965 469.998Q380.274 425.262 350.375 379.994C344.568 371.276 332.249 355.591 328.354 346.946L326.992 346.59C326.38 347.481 326.6 348.54 326.588 349.601Q326.343 420.666 326.903 491.722L326.516 608.034L326.424 679.226C326.416 686.506 325.526 702.736 326.644 708.961C327.52 713.84 332.039 719.701 334.422 724.084C342.51 738.954 350.466 753.856 358.773 768.618C362.945 776.031 375.991 796.639 377.461 802.581C379.145 809.389 378.002 828.47 377.946 836.424L231.912 836.325L194.373 836.423C188.473 836.447 181.727 837.135 175.946 836.169L174.524 835.829C173.19 832.881 173.906 827.661 174.002 824.378C174.151 819.236 173.024 812.65 174.321 807.752C175.728 802.436 179.005 797.474 181.3 792.482C191.063 771.249 201.492 750.321 211.358 729.132C214.119 723.202 217.635 717.438 219.988 711.343C220.897 708.988 221.425 706.743 221.59 704.22C221.943 698.83 221.534 693.262 221.529 687.851L221.532 652.326L221.525 541.483L221.23 180.476L351.449 180.457Q456.349 338.906 563.614 495.765L645.238 617.233Q656.193 633.248 666.979 649.377C672.233 657.233 677.342 665.403 683.164 672.844L682.954 300.115C677.727 290.975 671.499 282.309 665.797 273.447C645.591 242.039 623.899 211.526 604.743 179.455Z"/>
	<defs>
		<linearGradient id="gradient_0" gradientUnits="userSpaceOnUse" x1="139.59206" y1="620.51599" x2="368.75302" y2="578.41138">
			<stop offset="0" stop-color="#860302"/>
			<stop offset="1" stop-color="#C00000"/>
		</linearGradient>
	</defs>
	<path fill="url(#gradient_0)" d="M316.483 327.118C320.161 332.723 327.31 340.381 328.354 346.946L326.992 346.59C326.38 347.481 326.6 348.54 326.588 349.601Q326.343 420.666 326.903 491.722L326.516 608.034L326.424 679.226C326.416 686.506 325.526 702.736 326.644 708.961C327.52 713.84 332.039 719.701 334.422 724.084C342.51 738.954 350.466 753.856 358.773 768.618C362.945 776.031 375.991 796.639 377.461 802.581C379.145 809.389 378.002 828.47 377.946 836.424L231.912 836.325L194.373 836.423C188.473 836.447 181.727 837.135 175.946 836.169C176.809 836.086 176.99 836.037 177.781 835.578C178.631 832.987 178.23 829.789 178.29 827.046C189.481 825.872 201.238 826.594 212.508 826.612L272.086 826.571C283.045 826.568 294.201 827.08 305.124 826.39C326.052 825.901 347.075 826.495 368.017 826.41C368.005 819.56 369.041 810.239 367.153 803.754C365.41 797.764 359.767 790.409 356.537 784.84C349.746 773.132 317.517 718.442 316.288 709.205C315.673 704.577 316.021 699.525 316.034 694.862L316.076 671.97L316.066 594.182L316.483 327.118Z"/>
</svg>
